# xmcd
#
# Track frame offsets: 
#        150
#        14474
#        31703
#        47527
#        61776
#        79775
#        95225
#        110869
#        131359
#        152658
#        168482
#        187006
#        202680
#        222179
#
# Disc length: 3207 seconds
#
# Revision: 1
# Processed by: cddbd v1.5.1PL2 Copyright (c) Steve Scherf et al.
# Submitted via: ExactAudioCopy v0.95b4
#
DISCID=b50c850e
DTITLE=Various Artist - POP 101 - Estate 2000
DYEAR=2006
DGENRE=Pop
TTITLE0=LE VIBRAZIONI In una notte d'estate
TTITLE1=ALCAZAR Crying at the discoteque
TTITLE2=NEK Lascia che io sia
TTITLE3=TOM JONES Black Betty
TTITLE4=BIAGIO ANTONACCI Pazzo di lei (Remix)
TTITLE5=BOB SINCLAR FEAT. GARY PINE Love generation
TTITLE6=LUCA DIRISIO Calma e sangue freddo
TTITLE7=STEREOPHONICS Maybe tomorrow
TTITLE8=NEGRITA Rotolando verso sud
TTITLE9=RONAN KEATING Lovin' each day
TTITLE10=PAGO Parlo di te
TTITLE11=THE DANDY WARHOLS Behemain like you
TTITLE12=TIROMANCINO Per me è importante
TTITLE13=MANGO Ti porto in Africa
EXTD=
EXTT0=
EXTT1=
EXTT2=
EXTT3=
EXTT4=
EXTT5=
EXTT6=
EXTT7=
EXTT8=
EXTT9=
EXTT10=
EXTT11=
EXTT12=
EXTT13=
PLAYORDER=
